<svg xmlns="http://www.w3.org/2000/svg" viewBox="0 0 19.77 111.83"><defs><mask id="a" width="19.77" height="11.07" x="0" y="0" maskUnits="userSpaceOnUse"><path fill="#fff" d="M0 11V0h19.75v11z"/></mask><mask id="b" width="19.73" height="11.07" x=".02" y="55.09" maskUnits="userSpaceOnUse"><path fill="#fff" d="M19.75 66.13v-11H0v11z"/></mask><mask id="c" width="19.73" height="111.81" x=".02" y=".02" maskUnits="userSpaceOnUse"><path fill="#fff" d="M19.75 111.83V0H0v111.83z"/></mask></defs><g data-name="Layer 2"><g data-name="Layer 1"><g mask="url(#a)"><path fill="#4c4644" d="M15.16 3.35a3.72 3.72 0 0 0-1.69.3C11.84 4.55 11 6.34 10 7.93S7.55 11.05 4.87 11a5.41 5.41 0 0 1-3.63-1.4A5.7 5.7 0 0 1 0 5.64v-.12c0-2 .46-3.44 1.38-4.27A6.42 6.42 0 0 1 5.75 0h1v3.28h-1a6.07 6.07 0 0 0-2.84.44 2 2 0 0 0-1 1.8C2 7.17 3.21 7.7 4.6 7.7a3.72 3.72 0 0 0 1.69-.3C7.76 6.59 8.54 5 9.52 3.45 10.67 1.66 12.08 0 14.9 0a5.41 5.41 0 0 1 3.63 1.4 5.71 5.71 0 0 1 1.22 4v.12c0 2-.46 3.44-1.38 4.27A6.42 6.42 0 0 1 14 11h-1V7.78h1a6.06 6.06 0 0 0 2.84-.44 2 2 0 0 0 1-1.8c0-1.65-1.25-2.18-2.64-2.18"/></g><path fill="#4c4644" d="M.17 22.05v-3.26h17.28v-5.3h2.14v8.56zm2.14 13.06H.17v-8.57h2.14v5.31h6.5v-5.31h2.14v5.31h6.5v-5.31h2.14v8.57zm1.27 7.72H16.2a1.66 1.66 0 0 1 1.61 1.69v2.83H2v-2.79a1.66 1.66 0 0 1 1.59-1.73zm6.31-3.26H5.45a5.64 5.64 0 0 0-3.9 1.17c-.92.85-1.37 2.35-1.37 4.52v5.36h19.41v-5.36c0-2.18-.46-3.68-1.37-4.49a5.64 5.64 0 0 0-3.9-1.17z"/><g mask="url(#b)"><path fill="#4c4644" d="M9.89 62.83H14a6.07 6.07 0 0 0 2.84-.44 2.19 2.19 0 0 0 0-3.6 6.07 6.07 0 0 0-2.84-.44H5.75a6.07 6.07 0 0 0-2.84.48 2.19 2.19 0 0 0 0 3.6 6.07 6.07 0 0 0 2.84.4zm9.86-2.21c0 2-.46 3.44-1.38 4.27A6.42 6.42 0 0 1 14 66.13H5.75a6.42 6.42 0 0 1-4.38-1.24C.49 64.05 0 62.64 0 60.62s.46-3.44 1.38-4.27a6.42 6.42 0 0 1 4.35-1.24H14a6.42 6.42 0 0 1 4.37 1.24c.92.83 1.38 2.25 1.38 4.27z"/></g><path fill="#4c4644" d="M.17 74.7v-4.09h19.42v3H5.32l14.23 3.73v2.91L5.32 84h14.27v3H.17v-4.14l15.58-4.08zm0 19.7v-3h19.42v2.85l-13.21 6h13.21v3H.17v-2.85l13.21-6z"/><g mask="url(#c)"><path fill="#4c4644" d="M19.59 111.83v-3.27H.17v3.27z"/></g></g></g></svg>