<svg xmlns="http://www.w3.org/2000/svg" width="19.8" height="111.8">
    <path d="M15.2 3.3c-.6 0-1.2.1-1.7.3-1.7.9-2.5 2.7-3.5 4.3S7.6 11 4.9 11c-1.3 0-2.6-.5-3.6-1.4-1-1.1-1.4-2.5-1.3-4v-.1c0-2 .5-3.4 1.4-4.3C2.6.3 4.2-.1 5.8 0h1v3.3h-1c-1-.1-1.9.1-2.8.4-.6.4-1 1.1-1 1.8 0 1.7 1.2 2.2 2.6 2.2.6 0 1.2-.1 1.7-.3 1.5-.8 2.2-2.4 3.2-4C10.7 1.7 12.1 0 14.9 0c1.3 0 2.6.5 3.6 1.4.9 1.1 1.3 2.6 1.2 4v.1c0 2-.5 3.4-1.4 4.3-1.3.9-2.8 1.4-4.4 1.2h-1V7.8h1c1 .1 1.9-.1 2.8-.4.6-.4 1-1.1 1-1.8.1-1.7-1.1-2.2-2.5-2.3M.2 22v-3.3h17.3v-5.3h2.1V22H.2zm2.1 13.1H.2v-8.6h2.1v5.3h6.5v-5.3H11v5.3h6.5v-5.3h2.1v8.6H2.3zm15.9 5.7c-1.1-.9-2.5-1.3-3.9-1.2H5.5c-1.4-.1-2.8.3-3.9 1.2-.9.9-1.4 2.4-1.4 4.5v5.4h19.4v-5.4c0-2.2-.5-3.7-1.4-4.5zm-.4 6.5H2v-2.8c0-.9.7-1.7 1.6-1.7h12.6c.9 0 1.6.8 1.6 1.7v2.8zm.6 9c-1.3-.9-2.8-1.4-4.4-1.2H5.7c-1.6-.1-3.1.3-4.3 1.2-.9.9-1.4 2.3-1.4 4.3s.5 3.4 1.4 4.3c1.3.9 2.8 1.4 4.4 1.2H14c1.6.1 3.1-.3 4.4-1.2.9-.8 1.4-2.3 1.4-4.3s-.5-3.4-1.4-4.3zm-1.6 6.1c-.9.4-1.9.5-2.8.4H5.8c-1 .1-1.9 0-2.8-.4-.2-.1-.4-.3-.6-.6-.7-1-.4-2.4.6-3 .9-.4 1.9-.6 2.8-.5H14c1-.1 1.9.1 2.8.4.2.1.4.3.6.6.7 1 .4 2.4-.6 3.1zM.2 74.7v-4.1h19.4v3H5.3l14.2 3.7v2.9L5.3 84h14.3v3H.2v-4.1l15.6-4.1L.2 74.7zm0 19.7v-3h19.4v2.8l-13.2 6h13.2v3H.2v-2.8l13.2-6H.2zm19.4 17.4v-3.3H.2v3.3h19.4z" class="st0"/>
</svg>
